
<svg version="1.1" xmlns:xlink="http://www.w3.org/1999/xlink" x="0px" y="0px"
	 viewBox="0 0 253.053 126.939" enable-background="new 0 0 253.053 126.939" xml:space="preserve">
<path fill-rule="evenodd" clip-rule="evenodd" fill="#F3C444" d="M0,126.939C0,86.45,19.258,50.44,49.176,27.299l34.843,42.349
	c-18.658,14.64-28.428,31.948-28.428,57.291H0z"/>
<path fill-rule="evenodd" clip-rule="evenodd" fill="#9FC558" d="M55.136,23c20.58-14.463,45.739-23,72.913-23
	c27.213,0,52.369,8.536,72.905,23l-34.518,43.04c-14.683-9.916-26.296-12.203-38.386-12.203c-12.056,0-26.188,4.357-38.353,12.203
	L55.136,23z"/>
<path fill-rule="evenodd" clip-rule="evenodd" fill="#0093d7" d="M205.26,27.299c29.118,23.141,47.793,59.152,47.793,99.64h-53.987
	c0-25.343-10.397-43.396-27.486-57.291L205.26,27.299z"/>
</svg>
